<svg width="164" height="15" viewBox="0 0 164 15" xmlns="http://www.w3.org/2000/svg" version="1.1">
  <g>
    <g transform="matrix(0.01111111,0,0,0.01111111,-2.6666664,-3.9999996)">
      <path
        fill="#fe0000"
        d="m 600,1260 v -60 h 60 60 v -60 -60 h 60 60 v 60 60 h -60 -60 v 60 60 H 660 600 Z M 480,1020 v -60 h 60 60 v 60 60 h -60 -60 z m 480,0 v -60 h -60 -60 v -60 -60 h -60 -60 v -60 -60 h 60 60 v -60 -60 h 60 60 v 60 60 h -60 -60 v 60 60 h 60 60 v 60 60 h 60 60 v 60 60 h -60 -60 z m 120,-240 v -60 h 60 60 v 60 60 h -60 -60 z"/>
      <path
        fill="#a90e00"
        d="m 600,1380 v -60 h -60 -60 v -60 -60 h -60 -60 v -60 -60 h 60 60 v 60 60 h 60 60 V 1080 960 h -60 -60 v -60 -60 h 60 60 v -60 -60 h 60 60 v -60 -60 h 60 60 v 60 60 h 60 60 V 600 480 h 60 60 v 120 120 h -60 -60 v 60 60 h 60 60 v 60 60 h -60 -60 v -60 -60 h -60 -60 v 60 60 h -60 -60 v 120 120 h 60 60 v -60 -60 h 60 60 v 60 60 h -60 -60 v 60 60 h -60 -60 v 60 60 h -60 -60 z m 120,-120 v -60 h -60 -60 v 60 60 h 60 60 z M 840,780 v -60 h -60 -60 v 60 60 h 60 60 z m 240,480 v -60 h 60 60 v 60 60 h -60 -60 z m 240,-240 v -60 h 60 60 v 60 60 h -60 -60 z"/>
      <path
        fill="#710000"
        d="m 720,1380 v -60 h 60 60 v -60 -60 h 60 60 v -60 -60 h 60 60 v -60 -60 h 60 60 v 60 60 h -60 -60 v 60 60 h -60 -60 v 60 60 h -60 -60 v 60 60 H 780 720 Z M 480,1140 v -60 h -60 -60 v -60 -60 h 60 60 v 60 60 h 60 60 v 60 60 h -60 -60 z m 240,-120 v -60 h 60 60 v 60 60 H 780 720 Z M 960,780 v -60 h 60 60 v 60 60 h -60 -60 z M 840,540 v -60 h 60 60 v 60 60 h -60 -60 z"/>
      <path
        fill="#5b0600"
        d="m 960,1380 v -60 h 60 60 v 60 60 h -60 -60 z M 240,1080 V 960 h 60 60 v -60 -60 h 60 60 v -60 -60 h 60 60 v -60 -60 h 60 60 v -60 -60 h 60 60 v -60 -60 h 120 120 v 60 60 h 60 60 v 60 60 h -60 -60 V 540 480 H 960 840 v 60 60 h -60 -60 v 60 60 h -60 -60 v 60 60 h -60 -60 v 60 60 h -60 -60 v 120 120 h -60 -60 z m 1080,60 v -60 h 60 60 v 60 60 h -60 -60 z M 1200,900 v -60 h 60 60 v 60 60 h -60 -60 z"/>
      <path
        fill="#400400"
        d="m 840,1440 v -120 h 60 60 v -60 -60 h 60 60 v -60 -60 h 60 60 v -60 -60 h -60 -60 v -60 -60 h 60 60 v -60 -60 h -60 -60 v -60 -60 h 60 60 v 60 60 h 60 60 v 60 60 h 60 60 v 60 60 h -60 -60 v 120 120 h 60 60 v -60 -60 h 60 60 v 60 60 h -60 -60 v 60 60 h -60 -60 v 60 60 h -120 -120 v 60 60 H 960 840 Z m 240,-60 v -60 h 60 60 v -60 -60 h -60 -60 v 60 60 h -60 -60 v 60 60 h 60 60 z m 240,-480 v -60 h -60 -60 v 60 60 h 60 60 z m -840,480 v -60 h -60 -60 v -60 -60 h 60 60 v 60 60 h 60 60 v 60 60 h -60 -60 z m 360,-360 v -60 h 60 60 v 60 60 h -60 -60 z"/>
      <path
        fill="#330504"
        d="m 720,1500 v -60 h 60 60 v 60 60 h -60 -60 z m 360,0 v -60 h 60 60 v 60 60 h -60 -60 z m 240,-120 v -60 h 60 60 v -60 -60 h 60 60 v 60 60 h -60 -60 v 60 60 h -60 -60 z m 120,-360 v -60 h 60 60 v 60 60 h -60 -60 z"/>
      <path
        fill="#2c0000"
        d="m 720,1620 v -60 H 600 480 v -60 -60 h -60 -60 v -60 -60 h -60 -60 v -60 -60 h 60 60 v 60 60 h 60 60 v 60 60 h 120 120 v 60 60 h 240 240 v -60 -60 h 120 120 v -60 -60 h 60 60 V 1140 960 h -60 -60 v -60 -60 h -60 -60 v -60 -60 h -60 -60 v -60 -60 h 60 60 v 60 60 h 60 60 v 60 60 h 60 60 v 60 60 h 60 60 v 180 180 h -60 -60 v 60 60 h -60 -60 v 60 60 h -120 -120 v 60 60 H 960 720 Z"/>
    </g>
    <text x="20" y="12"
          fill="currentColor"
          font-weight="600"
          font-size="14px"
          font-family="Inter">
      <tspan>Awakened Redstone</tspan>
    </text>
  </g>
</svg>
