<?xml version="1.0" encoding="UTF-8" standalone="no"?>
<!-- Created with Inkscape (http://www.inkscape.org/) -->

<svg width="1920" height="1920" viewBox="0 0 1920 1920" xmlns="http://www.w3.org/2000/svg">
  <g>
    <g>
      <path
         style="fill:#fe0000;stroke-width:1.33333"
         d="m 600,1260 v -60 h 60 60 v -60 -60 h 60 60 v 60 60 h -60 -60 v 60 60 H 660 600 Z M 480,1020 v -60 h 60 60 v 60 60 h -60 -60 z m 480,0 v -60 h -60 -60 v -60 -60 h -60 -60 v -60 -60 h 60 60 v -60 -60 h 60 60 v 60 60 h -60 -60 v 60 60 h 60 60 v 60 60 h 60 60 v 60 60 h -60 -60 z m 120,-240 v -60 h 60 60 v 60 60 h -60 -60 z"
         id="path220" />
      <path
         style="fill:#a90e00;stroke-width:1.33333"
         d="m 600,1380 v -60 h -60 -60 v -60 -60 h -60 -60 v -60 -60 h 60 60 v 60 60 h 60 60 V 1080 960 h -60 -60 v -60 -60 h 60 60 v -60 -60 h 60 60 v -60 -60 h 60 60 v 60 60 h 60 60 V 600 480 h 60 60 v 120 120 h -60 -60 v 60 60 h 60 60 v 60 60 h -60 -60 v -60 -60 h -60 -60 v 60 60 h -60 -60 v 120 120 h 60 60 v -60 -60 h 60 60 v 60 60 h -60 -60 v 60 60 h -60 -60 v 60 60 h -60 -60 z m 120,-120 v -60 h -60 -60 v 60 60 h 60 60 z M 840,780 v -60 h -60 -60 v 60 60 h 60 60 z m 240,480 v -60 h 60 60 v 60 60 h -60 -60 z m 240,-240 v -60 h 60 60 v 60 60 h -60 -60 z"
         id="path218" />
      <path
         style="fill:#710000;stroke-width:1.33333"
         d="m 720,1380 v -60 h 60 60 v -60 -60 h 60 60 v -60 -60 h 60 60 v -60 -60 h 60 60 v 60 60 h -60 -60 v 60 60 h -60 -60 v 60 60 h -60 -60 v 60 60 H 780 720 Z M 480,1140 v -60 h -60 -60 v -60 -60 h 60 60 v 60 60 h 60 60 v 60 60 h -60 -60 z m 240,-120 v -60 h 60 60 v 60 60 H 780 720 Z M 960,780 v -60 h 60 60 v 60 60 h -60 -60 z M 840,540 v -60 h 60 60 v 60 60 h -60 -60 z"
         id="path216" />
      <path
         style="fill:#5b0600;stroke-width:1.33333"
         d="m 960,1380 v -60 h 60 60 v 60 60 h -60 -60 z M 240,1080 V 960 h 60 60 v -60 -60 h 60 60 v -60 -60 h 60 60 v -60 -60 h 60 60 v -60 -60 h 60 60 v -60 -60 h 120 120 v 60 60 h 60 60 v 60 60 h -60 -60 V 540 480 H 960 840 v 60 60 h -60 -60 v 60 60 h -60 -60 v 60 60 h -60 -60 v 60 60 h -60 -60 v 120 120 h -60 -60 z m 1080,60 v -60 h 60 60 v 60 60 h -60 -60 z M 1200,900 v -60 h 60 60 v 60 60 h -60 -60 z"
         id="path214" />
      <path
         style="fill:#400400;stroke-width:1.33333"
         d="m 840,1440 v -120 h 60 60 v -60 -60 h 60 60 v -60 -60 h 60 60 v -60 -60 h -60 -60 v -60 -60 h 60 60 v -60 -60 h -60 -60 v -60 -60 h 60 60 v 60 60 h 60 60 v 60 60 h 60 60 v 60 60 h -60 -60 v 120 120 h 60 60 v -60 -60 h 60 60 v 60 60 h -60 -60 v 60 60 h -60 -60 v 60 60 h -120 -120 v 60 60 H 960 840 Z m 240,-60 v -60 h 60 60 v -60 -60 h -60 -60 v 60 60 h -60 -60 v 60 60 h 60 60 z m 240,-480 v -60 h -60 -60 v 60 60 h 60 60 z m -840,480 v -60 h -60 -60 v -60 -60 h 60 60 v 60 60 h 60 60 v 60 60 h -60 -60 z m 360,-360 v -60 h 60 60 v 60 60 h -60 -60 z"
         id="path212" />
      <path
         style="fill:#330504;stroke-width:1.33333"
         d="m 720,1500 v -60 h 60 60 v 60 60 h -60 -60 z m 360,0 v -60 h 60 60 v 60 60 h -60 -60 z m 240,-120 v -60 h 60 60 v -60 -60 h 60 60 v 60 60 h -60 -60 v 60 60 h -60 -60 z m 120,-360 v -60 h 60 60 v 60 60 h -60 -60 z"
         id="path210" />
      <path
         style="fill:#2c0000;stroke-width:1.33333"
         d="m 720,1620 v -60 H 600 480 v -60 -60 h -60 -60 v -60 -60 h -60 -60 v -60 -60 h 60 60 v 60 60 h 60 60 v 60 60 h 120 120 v 60 60 h 240 240 v -60 -60 h 120 120 v -60 -60 h 60 60 V 1140 960 h -60 -60 v -60 -60 h -60 -60 v -60 -60 h -60 -60 v -60 -60 h 60 60 v 60 60 h 60 60 v 60 60 h 60 60 v 60 60 h 60 60 v 180 180 h -60 -60 v 60 60 h -60 -60 v 60 60 h -120 -120 v 60 60 H 960 720 Z"
         id="path208" />
    </g>
  </g>
</svg>
